{
	"asset":{
		"version":"2.0",
		"generator":"Created using the official Cinema 4D glTF Exporter 1.000x284978"
	},
	"scenes":[{
		"nodes":[0]
	}],
	"textures":[{
		"sampler":0,
		"source":0
	},
	{
		"sampler":1,
		"source":1
	},
	{
		"sampler":2,
		"source":2
	},
	{
		"sampler":3,
		"source":3
	},
	{
		"sampler":4,
		"source":4
	},
	{
		"sampler":5,
		"source":5
	},
	{
		"sampler":6,
		"source":6
	},
	{
		"sampler":7,
		"source":7
	},
	{
		"sampler":8,
		"source":8
	}],
	"nodes":[{
		"name":"Null",
		"translation":[28.282861709594728,
		8.67745590209961,
		23.182287216186525],
		"rotation":[0.0,
		0.0,
		0.0,
		-1.0],
		"scale":[1.0,
		1.0,
		1.0],
		"children":[1,
		2,
		3]
	},
	{
		"name":"Caixa em mapa.2",
		"mesh":0,
		"translation":[-44.125831604003909,
		-8.592338562011719,
		1.8869978189468384],
		"rotation":[0.0,
		-0.7372773289680481,
		0.0,
		-0.6755902171134949],
		"scale":[1.0,
		1.0,
		1.0]
	},
	{
		"name":"Null",
		"translation":[7.046143531799316,
		-6.627492904663086,
		-4.662120819091797],
		"rotation":[0.0,
		0.0,
		0.0,
		-1.0],
		"scale":[1.0,
		1.0,
		1.0],
		"children":[4,
		5,
		6,
		7,
		8,
		9,
		10,
		11]
	},
	{
		"name":"Caixa em mapa.3",
		"mesh":1,
		"translation":[-0.18916934728622437,
		-8.67745590209961,
		2.394199848175049],
		"rotation":[0.0,
		-0.7372773289680481,
		0.0,
		-0.6755902171134949],
		"scale":[1.0,
		1.0,
		1.0]
	},
	{
		"name":"Caixa4f",
		"mesh":2,
		"translation":[-4.636519432067871,
		-1.7956937551498414,
		-0.9407666325569153],
		"rotation":[-0.00018887931946665049,
		0.7071067690849304,
		0.7071067690849304,
		0.00018887931946665049],
		"scale":[1.0,
		1.0,
		1.0]
	},
	{
		"name":"Caixa4e",
		"mesh":3,
		"translation":[8.33630084991455,
		0.6338520050048828,
		-0.9407666325569153],
		"rotation":[-0.00018887931946665049,
		0.7071067690849304,
		0.7071067690849304,
		0.00018887931946665049],
		"scale":[1.0,
		1.0,
		1.0]
	},
	{
		"name":"Caixa4d",
		"mesh":4,
		"translation":[1.9075219631195069,
		-1.7956937551498414,
		-0.9407666325569153],
		"rotation":[-0.00018887931946665049,
		0.7071067690849304,
		0.7071067690849304,
		0.00018887931946665049],
		"scale":[1.0,
		1.0,
		1.0]
	},
	{
		"name":"Caixa4c",
		"mesh":5,
		"translation":[8.406838417053223,
		-1.7956937551498414,
		-0.9407666325569153],
		"rotation":[-0.00018887931946665049,
		0.7071067690849304,
		0.7071067690849304,
		0.00018887931946665049],
		"scale":[1.0,
		1.0,
		1.0]
	},
	{
		"name":"Caixa4b",
		"mesh":6,
		"translation":[-4.58466911315918,
		0.6338520050048828,
		-0.9407666325569153],
		"rotation":[-0.00018887931946665049,
		0.7071067690849304,
		0.7071067690849304,
		0.00018887931946665049],
		"scale":[1.0,
		1.0,
		1.0]
	},
	{
		"name":"Caixa4a",
		"mesh":7,
		"translation":[1.8988810777664185,
		0.6338520050048828,
		-0.9407666325569153],
		"rotation":[-0.00018887931946665049,
		0.7071067690849304,
		0.7071067690849304,
		0.00018887931946665049],
		"scale":[1.0,
		1.0,
		1.0]
	},
	{
		"name":"Caixa3",
		"mesh":8,
		"translation":[-17.247299194335939,
		-1.7956937551498414,
		-1.8246012926101685],
		"rotation":[-0.5,
		-0.5,
		0.5,
		-0.5],
		"scale":[1.0,
		1.0,
		1.0]
	},
	{
		"name":"Caixa2",
		"mesh":9,
		"translation":[5.9189453125,
		5.281219005584717,
		6.883570671081543],
		"rotation":[0.7071067690849304,
		-0.7071067690849304,
		4.329780301713277e-17,
		-4.329780301713277e-17],
		"scale":[1.0,
		1.0,
		1.0]
	}],
	"meshes":[{
		"name":"Caixa em mapa.2",
		"primitives":[{
			"attributes":{
				"POSITION":1,
				"NORMAL":2,
				"TEXCOORD_0":3
			},
			"indices":0,
			"material":0
		}]
	},
	{
		"name":"Caixa em mapa.3",
		"primitives":[{
			"attributes":{
				"POSITION":5,
				"NORMAL":6,
				"TEXCOORD_0":7
			},
			"indices":4,
			"material":0
		}]
	},
	{
		"name":"Caixa4f",
		"primitives":[{
			"attributes":{
				"POSITION":9,
				"TEXCOORD_0":10
			},
			"indices":8,
			"material":1
		}]
	},
	{
		"name":"Caixa4e",
		"primitives":[{
			"attributes":{
				"POSITION":12,
				"TEXCOORD_0":13
			},
			"indices":11,
			"material":2
		}]
	},
	{
		"name":"Caixa4d",
		"primitives":[{
			"attributes":{
				"POSITION":15,
				"TEXCOORD_0":16
			},
			"indices":14,
			"material":3
		}]
	},
	{
		"name":"Caixa4c",
		"primitives":[{
			"attributes":{
				"POSITION":18,
				"TEXCOORD_0":19
			},
			"indices":17,
			"material":4
		}]
	},
	{
		"name":"Caixa4b",
		"primitives":[{
			"attributes":{
				"POSITION":21,
				"TEXCOORD_0":22
			},
			"indices":20,
			"material":5
		}]
	},
	{
		"name":"Caixa4a",
		"primitives":[{
			"attributes":{
				"POSITION":24,
				"TEXCOORD_0":25
			},
			"indices":23,
			"material":6
		}]
	},
	{
		"name":"Caixa3",
		"primitives":[{
			"attributes":{
				"POSITION":27,
				"TEXCOORD_0":28
			},
			"indices":26,
			"material":7
		}]
	},
	{
		"name":"Caixa2",
		"primitives":[{
			"attributes":{
				"POSITION":30,
				"TEXCOORD_0":31
			},
			"indices":29,
			"material":8
		}]
	}],
	"accessors":[{
		"bufferView":0,
		"max":[223],
		"type":"SCALAR",
		"componentType":5123,
		"count":594,
		"byteOffset":0,
		"min":[0]
	},
	{
		"bufferView":1,
		"max":[17.50227165222168,
		7.595505714416504,
		18.796287536621095],
		"type":"VEC3",
		"componentType":5126,
		"count":224,
		"byteOffset":0,
		"min":[-2.890805959701538,
		-0.2843979299068451,
		-16.835647583007814]
	},
	{
		"bufferView":1,
		"max":[0.9961973428726196,
		0.99998939037323,
		0.9961973428726196],
		"type":"VEC3",
		"componentType":5126,
		"count":224,
		"byteOffset":12,
		"min":[-0.9961973428726196,
		-1.0,
		-0.9961973428726196]
	},
	{
		"bufferView":1,
		"max":[1.0,
		1.0],
		"type":"VEC2",
		"componentType":5126,
		"count":224,
		"byteOffset":24,
		"min":[0.0,
		-2.220446049250313e-16]
	},
	{
		"bufferView":2,
		"max":[221],
		"type":"SCALAR",
		"componentType":5123,
		"count":594,
		"byteOffset":0,
		"min":[0]
	},
	{
		"bufferView":3,
		"max":[17.202882766723634,
		30.69376564025879,
		18.72455596923828],
		"type":"VEC3",
		"componentType":5126,
		"count":222,
		"byteOffset":0,
		"min":[-2.8187170028686525,
		-0.2843979299068451,
		-16.83616828918457]
	},
	{
		"bufferView":3,
		"max":[0.9961973428726196,
		0.5735695958137512,
		0.9981757402420044],
		"type":"VEC3",
		"componentType":5126,
		"count":222,
		"byteOffset":12,
		"min":[-0.9961973428726196,
		-1.0,
		-0.9961973428726196]
	},
	{
		"bufferView":3,
		"max":[1.0,
		1.0],
		"type":"VEC2",
		"componentType":5126,
		"count":222,
		"byteOffset":24,
		"min":[0.0,
		-2.220446049250313e-16]
	},
	{
		"bufferView":4,
		"max":[85],
		"type":"SCALAR",
		"componentType":5123,
		"count":261,
		"byteOffset":0,
		"min":[0]
	},
	{
		"bufferView":5,
		"max":[5.029947280883789,
		8.344470024108887,
		2.2000033855438234],
		"type":"VEC3",
		"componentType":5126,
		"count":86,
		"byteOffset":0,
		"min":[-0.9700548648834229,
		-7.705539226531982,
		-0.20000030100345612]
	},
	{
		"bufferView":5,
		"max":[1.0,
		1.0],
		"type":"VEC2",
		"componentType":5126,
		"count":86,
		"byteOffset":12,
		"min":[0.0,
		0.0]
	},
	{
		"bufferView":6,
		"max":[85],
		"type":"SCALAR",
		"componentType":5123,
		"count":261,
		"byteOffset":0,
		"min":[0]
	},
	{
		"bufferView":7,
		"max":[5.029947280883789,
		8.344470024108887,
		2.2000033855438234],
		"type":"VEC3",
		"componentType":5126,
		"count":86,
		"byteOffset":0,
		"min":[-0.9700548648834229,
		-7.705539226531982,
		-0.20000030100345612]
	},
	{
		"bufferView":7,
		"max":[1.0,
		1.0],
		"type":"VEC2",
		"componentType":5126,
		"count":86,
		"byteOffset":12,
		"min":[0.0,
		0.0]
	},
	{
		"bufferView":8,
		"max":[85],
		"type":"SCALAR",
		"componentType":5123,
		"count":261,
		"byteOffset":0,
		"min":[0]
	},
	{
		"bufferView":9,
		"max":[5.029947280883789,
		8.344470024108887,
		2.2000033855438234],
		"type":"VEC3",
		"componentType":5126,
		"count":86,
		"byteOffset":0,
		"min":[-0.9700548648834229,
		-7.705539226531982,
		-0.20000030100345612]
	},
	{
		"bufferView":9,
		"max":[1.0,
		1.0],
		"type":"VEC2",
		"componentType":5126,
		"count":86,
		"byteOffset":12,
		"min":[0.0,
		0.0]
	},
	{
		"bufferView":10,
		"max":[85],
		"type":"SCALAR",
		"componentType":5123,
		"count":261,
		"byteOffset":0,
		"min":[0]
	},
	{
		"bufferView":11,
		"max":[5.029947280883789,
		8.344470024108887,
		2.2000033855438234],
		"type":"VEC3",
		"componentType":5126,
		"count":86,
		"byteOffset":0,
		"min":[-0.9700548648834229,
		-7.705539226531982,
		-0.20000030100345612]
	},
	{
		"bufferView":11,
		"max":[1.0,
		1.0],
		"type":"VEC2",
		"componentType":5126,
		"count":86,
		"byteOffset":12,
		"min":[0.0,
		0.0]
	},
	{
		"bufferView":12,
		"max":[85],
		"type":"SCALAR",
		"componentType":5123,
		"count":261,
		"byteOffset":0,
		"min":[0]
	},
	{
		"bufferView":13,
		"max":[5.029947280883789,
		8.344470024108887,
		2.2000033855438234],
		"type":"VEC3",
		"componentType":5126,
		"count":86,
		"byteOffset":0,
		"min":[-0.9700548648834229,
		-7.705539226531982,
		-0.20000030100345612]
	},
	{
		"bufferView":13,
		"max":[1.0,
		1.0],
		"type":"VEC2",
		"componentType":5126,
		"count":86,
		"byteOffset":12,
		"min":[0.0,
		0.0]
	},
	{
		"bufferView":14,
		"max":[85],
		"type":"SCALAR",
		"componentType":5123,
		"count":261,
		"byteOffset":0,
		"min":[0]
	},
	{
		"bufferView":15,
		"max":[5.029947280883789,
		8.344470024108887,
		2.2000033855438234],
		"type":"VEC3",
		"componentType":5126,
		"count":86,
		"byteOffset":0,
		"min":[-0.9700548648834229,
		-7.705539226531982,
		-0.20000030100345612]
	},
	{
		"bufferView":15,
		"max":[1.0,
		1.0],
		"type":"VEC2",
		"componentType":5126,
		"count":86,
		"byteOffset":12,
		"min":[0.0,
		0.0]
	},
	{
		"bufferView":16,
		"max":[85],
		"type":"SCALAR",
		"componentType":5123,
		"count":261,
		"byteOffset":0,
		"min":[0]
	},
	{
		"bufferView":17,
		"max":[6.813376426696777,
		6.843690395355225,
		0.20002850890159608],
		"type":"VEC3",
		"componentType":5126,
		"count":86,
		"byteOffset":0,
		"min":[-9.186634063720704,
		-6.156308174133301,
		-4.500001430511475]
	},
	{
		"bufferView":17,
		"max":[1.0,
		1.0],
		"type":"VEC2",
		"componentType":5126,
		"count":86,
		"byteOffset":12,
		"min":[2.220446049250313e-16,
		0.0]
	},
	{
		"bufferView":18,
		"max":[79],
		"type":"SCALAR",
		"componentType":5123,
		"count":225,
		"byteOffset":0,
		"min":[0]
	},
	{
		"bufferView":19,
		"max":[7.300002098083496,
		23.05000877380371,
		2.842170943040401e-14],
		"type":"VEC3",
		"componentType":5126,
		"count":80,
		"byteOffset":0,
		"min":[-1.7763568394002506e-14,
		-0.04999919608235359,
		-0.9999979734420776]
	},
	{
		"bufferView":19,
		"max":[0.954165518283844,
		1.0],
		"type":"VEC2",
		"componentType":5126,
		"count":80,
		"byteOffset":12,
		"min":[-2.220446049250313e-16,
		0.0]
	}],
	"bufferViews":[{
		"byteLength":1188,
		"buffer":0,
		"target":34963,
		"byteOffset":0
	},
	{
		"byteLength":7168,
		"buffer":0,
		"target":34962,
		"byteOffset":1188,
		"byteStride":32
	},
	{
		"byteLength":1188,
		"buffer":1,
		"target":34963,
		"byteOffset":0
	},
	{
		"byteLength":7104,
		"buffer":1,
		"target":34962,
		"byteOffset":1188,
		"byteStride":32
	},
	{
		"byteLength":522,
		"buffer":2,
		"target":34963,
		"byteOffset":0
	},
	{
		"byteLength":1720,
		"buffer":2,
		"target":34962,
		"byteOffset":524,
		"byteStride":20
	},
	{
		"byteLength":522,
		"buffer":3,
		"target":34963,
		"byteOffset":0
	},
	{
		"byteLength":1720,
		"buffer":3,
		"target":34962,
		"byteOffset":524,
		"byteStride":20
	},
	{
		"byteLength":522,
		"buffer":4,
		"target":34963,
		"byteOffset":0
	},
	{
		"byteLength":1720,
		"buffer":4,
		"target":34962,
		"byteOffset":524,
		"byteStride":20
	},
	{
		"byteLength":522,
		"buffer":5,
		"target":34963,
		"byteOffset":0
	},
	{
		"byteLength":1720,
		"buffer":5,
		"target":34962,
		"byteOffset":524,
		"byteStride":20
	},
	{
		"byteLength":522,
		"buffer":6,
		"target":34963,
		"byteOffset":0
	},
	{
		"byteLength":1720,
		"buffer":6,
		"target":34962,
		"byteOffset":524,
		"byteStride":20
	},
	{
		"byteLength":522,
		"buffer":7,
		"target":34963,
		"byteOffset":0
	},
	{
		"byteLength":1720,
		"buffer":7,
		"target":34962,
		"byteOffset":524,
		"byteStride":20
	},
	{
		"byteLength":522,
		"buffer":8,
		"target":34963,
		"byteOffset":0
	},
	{
		"byteLength":1720,
		"buffer":8,
		"target":34962,
		"byteOffset":524,
		"byteStride":20
	},
	{
		"byteLength":450,
		"buffer":9,
		"target":34963,
		"byteOffset":0
	},
	{
		"byteLength":1600,
		"buffer":9,
		"target":34962,
		"byteOffset":452,
		"byteStride":20
	}],
	"buffers":[{
		"uri":"data:application/octet-stream;base64,",
		"byteLength":8356
	},
	{
		"uri":"data:application/octet-stream;base64,",
		"byteLength":8292
	},
	{
		"uri":"data:application/octet-stream;base64,",
		"byteLength":2244
	},
	{
		"uri":"data:application/octet-stream;base64,",
		"byteLength":2244
	},
	{
		"uri":"data:application/octet-stream;base64,",
		"byteLength":2244
	},
	{
		"uri":"data:application/octet-stream;base64,",
		"byteLength":2244
	},
	{
		"uri":"data:application/octet-stream;base64,",
		"byteLength":2244
	},
	{
		"uri":"data:application/octet-stream;base64,",
		"byteLength":2244
	},
	{
		"uri":"data:application/octet-stream;base64,",
		"byteLength":2244
	},
	{
		"uri":"data:application/octet-stream;base64,",
		"byteLength":2052
	}],
	"images":[{
		"uri":"data:image/png;base64,"
	},
	{
		"uri":"data:image/png;base64,"
	},
	{
		"uri":"data:image/png;base64,"
	},
	{
		"uri":"data:image/png;base64,"
	},
	{
		"uri":"data:image/png;base64,"
	},
	{
		"uri":"data:image/png;base64,"
	},
	{
		"uri":"data:image/png;base64,"
	},
	{
		"uri":"data:image/png;base64,"
	},
	{
		"uri":"data:image/png;base64,"
	}],
	"samplers":[{
		"magFilter":9729,
		"minFilter":9729,
		"wrapS":10497,
		"wrapT":10497
	},
	{
		"magFilter":9729,
		"minFilter":9729,
		"wrapS":10497,
		"wrapT":10497
	},
	{
		"magFilter":9729,
		"minFilter":9729,
		"wrapS":10497,
		"wrapT":10497
	},
	{
		"magFilter":9729,
		"minFilter":9729,
		"wrapS":10497,
		"wrapT":10497
	},
	{
		"magFilter":9729,
		"minFilter":9729,
		"wrapS":10497,
		"wrapT":10497
	},
	{
		"magFilter":9729,
		"minFilter":9729,
		"wrapS":10497,
		"wrapT":10497
	},
	{
		"magFilter":9729,
		"minFilter":9729,
		"wrapS":10497,
		"wrapT":10497
	},
	{
		"magFilter":9729,
		"minFilter":9729,
		"wrapS":10497,
		"wrapT":10497
	},
	{
		"magFilter":9729,
		"minFilter":9729,
		"wrapS":10497,
		"wrapT":10497
	}],
	"materials":[{
		"pbrMetallicRoughness":{
			"baseColorTexture":{
				"index":0
			},
			"baseColorFactor":[1.0,
			1.0,
			1.0,
			1.0],
			"metallicFactor":0.0,
			"roughnessFactor":0.5
		},
		"emissiveFactor":[0.0,
		0.0,
		0.0],
		"alphaMode":"OPAQUE",
		"doubleSided":false,
		"name":"Mat"
	},
	{
		"pbrMetallicRoughness":{
			"baseColorTexture":{
				"index":1
			},
			"baseColorFactor":[1.0,
			1.0,
			1.0,
			1.0],
			"metallicFactor":0.0,
			"roughnessFactor":0.5
		},
		"emissiveFactor":[0.0,
		0.0,
		0.0],
		"alphaMode":"OPAQUE",
		"doubleSided":false,
		"name":"Mat.3f"
	},
	{
		"pbrMetallicRoughness":{
			"baseColorTexture":{
				"index":2
			},
			"baseColorFactor":[1.0,
			1.0,
			1.0,
			1.0],
			"metallicFactor":0.0,
			"roughnessFactor":0.5
		},
		"emissiveFactor":[0.0,
		0.0,
		0.0],
		"alphaMode":"OPAQUE",
		"doubleSided":false,
		"name":"Mat.3e"
	},
	{
		"pbrMetallicRoughness":{
			"baseColorTexture":{
				"index":3
			},
			"baseColorFactor":[1.0,
			1.0,
			1.0,
			1.0],
			"metallicFactor":0.0,
			"roughnessFactor":0.5
		},
		"emissiveFactor":[0.0,
		0.0,
		0.0],
		"alphaMode":"OPAQUE",
		"doubleSided":false,
		"name":"Mat.3d"
	},
	{
		"pbrMetallicRoughness":{
			"baseColorTexture":{
				"index":4
			},
			"baseColorFactor":[1.0,
			1.0,
			1.0,
			1.0],
			"metallicFactor":0.0,
			"roughnessFactor":0.5
		},
		"emissiveFactor":[0.0,
		0.0,
		0.0],
		"alphaMode":"OPAQUE",
		"doubleSided":false,
		"name":"Mat.3c"
	},
	{
		"pbrMetallicRoughness":{
			"baseColorTexture":{
				"index":5
			},
			"baseColorFactor":[1.0,
			1.0,
			1.0,
			1.0],
			"metallicFactor":0.0,
			"roughnessFactor":0.5
		},
		"emissiveFactor":[0.0,
		0.0,
		0.0],
		"alphaMode":"OPAQUE",
		"doubleSided":false,
		"name":"Mat.3b"
	},
	{
		"pbrMetallicRoughness":{
			"baseColorTexture":{
				"index":6
			},
			"baseColorFactor":[1.0,
			1.0,
			1.0,
			1.0],
			"metallicFactor":0.0,
			"roughnessFactor":0.5
		},
		"emissiveFactor":[0.0,
		0.0,
		0.0],
		"alphaMode":"OPAQUE",
		"doubleSided":false,
		"name":"Mat.3"
	},
	{
		"pbrMetallicRoughness":{
			"baseColorTexture":{
				"index":7
			},
			"baseColorFactor":[1.0,
			1.0,
			1.0,
			1.0],
			"metallicFactor":0.0,
			"roughnessFactor":0.5
		},
		"emissiveFactor":[0.0,
		0.0,
		0.0],
		"alphaMode":"OPAQUE",
		"doubleSided":false,
		"name":"Mat.1"
	},
	{
		"pbrMetallicRoughness":{
			"baseColorTexture":{
				"index":8
			},
			"baseColorFactor":[1.0,
			1.0,
			1.0,
			1.0],
			"metallicFactor":0.0,
			"roughnessFactor":0.5
		},
		"emissiveFactor":[0.0,
		0.0,
		0.0],
		"alphaMode":"OPAQUE",
		"doubleSided":false,
		"name":"Mat.2"
	}]
}